<svg width="41" height="37" viewBox="0 0 41 37" fill="none" xmlns="http://www.w3.org/2000/svg">
<path d="M5.125 25.902C5.125 26.7435 5.80716 27.4256 6.64865 27.4256H34.3514C35.1928 27.4256 35.875 26.7435 35.875 25.902V25.902C35.875 25.0605 35.1928 24.3783 34.3514 24.3783H6.64865C5.80716 24.3783 5.125 25.0605 5.125 25.902V25.902ZM5.125 18.2837C5.125 19.1252 5.80716 19.8074 6.64865 19.8074H34.3514C35.1928 19.8074 35.875 19.1252 35.875 18.2837V18.2837C35.875 17.4422 35.1928 16.7601 34.3514 16.7601H6.64865C5.80716 16.7601 5.125 17.4422 5.125 18.2837V18.2837ZM6.64865 9.14185C5.80716 9.14185 5.125 9.82401 5.125 10.6655V10.6655C5.125 11.507 5.80716 12.1891 6.64865 12.1891H34.3514C35.1928 12.1891 35.875 11.507 35.875 10.6655V10.6655C35.875 9.82401 35.1928 9.14185 34.3514 9.14185H6.64865Z" fill="black"/>
</svg>
