<svg width="159" height="208" viewBox="0 0 159 208" fill="none" xmlns="http://www.w3.org/2000/svg">
<g clip-path="url(#clip0_4_56)">
<path d="M79.5001 208C123.407 208 159 172.754 159 129.274C159 85.7953 123.407 50.5486 79.5001 50.5486C35.5934 50.5486 0 85.7953 0 129.274C0 172.754 35.5934 208 79.5001 208Z" fill="#568564"/>
<path opacity="0.86" d="M79.5001 208C123.407 208 159 172.754 159 129.274C159 85.7953 123.407 50.5486 79.5001 50.5486C35.5934 50.5486 0 85.7953 0 129.274C0 172.754 35.5934 208 79.5001 208Z" fill="#EEEEEE"/>
<path opacity="0.1" d="M37.6477 130.485L54.2197 153.842L26.5115 158.407L17.2312 146.007L37.6477 130.485Z" fill="#568564"/>
<path opacity="0.1" d="M144.37 94.5666L133.233 85.3848L120.86 102.725L124.73 107.159L144.37 94.5666Z" fill="#568564"/>
<path opacity="0.1" d="M30.533 102.724L40.7735 95.1541L49.4106 109.052L39.4446 114.236L30.533 102.724Z" fill="#568564"/>
<path opacity="0.1" d="M90.97 186.68L102.755 177.184L110.033 186.68L96.9087 195.563L90.97 186.68Z" fill="#568564"/>
<path opacity="0.1" d="M43.7889 118.063L54.4832 110.325L63.0133 121.433L58.3734 126.126L65.2845 134.954L71.6749 130.485L79.1209 139.812L65.2845 149.921L43.7889 118.063Z" fill="#568564"/>
<path d="M158.883 133.574L119.056 160.277L137.402 183.219C136.856 183.796 136.301 184.363 135.736 184.92L117.119 161.639L84.7714 185.518L99.0985 205.59C98.2737 205.799 97.4436 205.993 96.6083 206.172L82.1679 185.938L61.9066 157.96L26.4354 165.037L29.2734 190.299C28.3775 189.576 27.4991 188.834 26.6383 188.073L24.0006 164.59L0.442699 137.603C0.300403 136.293 0.193242 134.974 0.121216 133.645L25.5816 162.813L60.3887 155.867L11.5357 88.4102C11.9784 87.6874 12.4334 86.9724 12.9007 86.2653L62.9387 155.358L63.2128 155.303L99.7143 129.869L73.8586 96.63L77.5926 50.5733C78.2276 50.5576 78.8636 50.5498 79.5004 50.5498C79.6585 50.5498 79.8166 50.5498 79.9747 50.5524L76.2961 95.915L101.656 128.515L150.746 94.3102C151.104 95.0199 151.45 95.7367 151.784 96.4603L64.3854 157.357L83.3951 183.605L117.549 158.393L117.58 158.433L158.986 130.671C158.97 131.643 158.936 132.609 158.883 133.574Z" fill="#568564"/>
<path d="M79.498 3.34619C54.4745 3.34619 34.2696 23.3752 34.2696 48.0794C34.2696 55.8474 37.2473 64.5971 39.7878 69.524C48.1274 85.707 78.9955 130.957 78.9955 130.957C79.0477 131.044 79.1216 131.115 79.2101 131.165C79.2985 131.214 79.3985 131.241 79.5002 131.241C79.6018 131.241 79.7018 131.214 79.7902 131.165C79.8787 131.115 79.9526 131.044 80.0048 130.957C80.0048 130.957 110.873 85.707 119.212 69.524C121.752 64.5961 124.73 55.8474 124.73 48.0794C124.73 23.3742 104.525 3.34619 79.502 3.34619H79.498Z" fill="#568564"/>
<path opacity="0.12" d="M79.498 3.34619C54.4745 3.34619 34.2696 23.3752 34.2696 48.0794C34.2696 55.8474 37.2473 64.5971 39.7878 69.524C48.1274 85.707 78.9955 130.957 78.9955 130.957C79.0477 131.044 79.1216 131.115 79.2101 131.165C79.2985 131.214 79.3985 131.241 79.5002 131.241C79.6018 131.241 79.7018 131.214 79.7902 131.165C79.8787 131.115 79.9526 131.044 80.0048 130.957C80.0048 130.957 110.873 85.707 119.212 69.524C121.752 64.5961 124.73 55.8474 124.73 48.0794C124.73 23.3742 104.525 3.34619 79.502 3.34619H79.498Z" fill="#568564"/>
<path d="M78.5262 10.3613C78.8509 10.3532 79.1724 10.3613 79.4989 10.3613C84.5136 10.3613 89.4784 11.3484 94.1045 13.2651C98.7307 15.1819 102.926 17.99 106.447 21.5264C109.967 25.0627 112.743 29.2568 114.612 33.8647C116.482 38.4727 117.408 43.4026 117.336 48.3681C117.051 68.55 100.418 85.0229 80.0367 85.3026C70.0536 85.4182 60.4287 81.6231 53.2583 74.7438C46.0879 67.8645 41.9528 58.4582 41.7536 48.5737C41.5544 38.6891 45.3072 29.127 52.1947 21.9698C59.0822 14.8126 68.5465 10.6402 78.5262 10.3613Z" fill="#EEEEEE"/>
<path d="M90.97 0.593994C90.97 0.593994 101.918 0.726553 98.143 15.6667L97.1153 15.7162L95.0286 15.817L90.97 0.593994Z" fill="#568564"/>
<path d="M78.746 31.3413C78.7971 31.3366 78.9987 40.6552 89.937 40.2637C97.5095 39.9937 100.512 32.1643 100.686 32.1708C99.8782 31.9683 98.5172 31.6664 98.163 31.4616C96.9988 30.7831 95.5543 30.0684 95.2599 27.7674C95.0907 26.441 95.7295 19.7136 95.6665 18.3757L83.9761 20.4923C84.0275 23.3144 84.9053 29.8862 80.8873 30.8888C80.2187 31.0545 79.5012 31.203 78.746 31.3413Z" fill="#E98862"/>
<path opacity="0.52" d="M83.5065 28.3174C83.7109 27.745 83.8512 27.1522 83.925 26.5495C84.1066 25.1748 84.1356 23.7845 84.0117 22.4036C86.3797 22.1793 88.6367 21.3017 90.5262 19.8706C90.7107 20.666 91.7594 24.1501 91.4024 24.886C90.7267 26.277 87.7261 28.4797 83.5065 28.3174Z" fill="#568564"/>
<path d="M86.1604 26.6712C90.7428 26.3474 96.2715 23.5834 96.4636 17.4351L96.6368 11.8871C96.8289 5.73877 93.7236 0.654528 87.8774 0.475259C82.0314 0.296251 77.5061 5.14616 77.314 11.2953L77.2374 13.7513C77.2259 14.595 77.2724 15.4385 77.3768 16.276C77.6361 18.4914 78.039 21.8602 79.5112 24.1604C80.9028 26.332 83.2325 26.8773 86.1604 26.6712Z" fill="#E98862"/>
<path d="M96.042 19.297C97.8186 19.3515 99.3175 17.5134 99.3725 15.7541C99.4276 13.9948 98.0176 12.9805 96.241 12.9263L95.2887 14.077L94.5145 19.2503L96.042 19.297Z" fill="#E98862"/>
<path d="M77.6147 18.1326C77.9356 18.5095 78.3466 18.8009 78.8103 18.9803C79.274 19.1597 79.7757 19.2213 80.2696 19.1596C81.3257 19.0292 82.0269 19.4574 82.9089 19.371C83.6494 19.2987 83.7785 18.9603 85.041 18.8862C89.9193 18.5991 93.5787 18.2957 93.8172 12.2339L96.9213 9.50366C96.9213 9.50366 98.3087 26.3009 89.1341 28.5338C83.4965 29.9059 78.2087 29.4038 77.5288 24.1604C76.9765 19.8999 77.6147 18.1326 77.6147 18.1326Z" fill="black"/>
<path d="M79.9257 14.6248C80.3236 14.6248 80.6461 14.3054 80.6461 13.9114C80.6461 13.5174 80.3236 13.198 79.9257 13.198C79.5278 13.198 79.2053 13.5174 79.2053 13.9114C79.2053 14.3054 79.5278 14.6248 79.9257 14.6248Z" fill="#568564"/>
<path d="M86.3611 14.4918C86.759 14.4918 87.0816 14.1724 87.0816 13.7784C87.0816 13.3844 86.759 13.0649 86.3611 13.0649C85.9632 13.0649 85.6407 13.3844 85.6407 13.7784C85.6407 14.1724 85.9632 14.4918 86.3611 14.4918Z" fill="#568564"/>
<path d="M94.3261 16.4374C94.3261 16.4374 93.886 7.72448 91.2311 7.13892C89.4632 6.74907 85.1137 9.16437 81.1413 8.33926C79.4021 7.97864 77.7399 8.37605 77.5576 9.1889C77.4848 9.51064 76.1082 6.65617 78.9051 3.18274C81.1313 0.416731 88.3697 -0.360621 91.59 0.617398C100.506 3.32574 96.6004 13.316 96.6004 13.316L96.1453 16.309L94.3261 16.4374Z" fill="black"/>
<path d="M82.9961 19.0913H82.9845C82.4122 19.0754 81.4535 18.9853 81.4651 18.561C81.4757 18.2095 82.5553 14.4433 82.6773 14.0151C82.6816 13.996 82.6899 13.9779 82.7015 13.962C82.7132 13.9461 82.7279 13.9328 82.745 13.9227C82.762 13.9127 82.7809 13.9062 82.8006 13.9036C82.8202 13.901 82.8402 13.9024 82.8593 13.9078C82.8784 13.9131 82.8961 13.9222 82.9115 13.9345C82.927 13.9469 82.9397 13.9622 82.9489 13.9796C82.9581 13.997 82.9637 14.016 82.9652 14.0356C82.9668 14.0552 82.9643 14.0748 82.9579 14.0934C82.4789 15.7611 81.764 18.3304 81.7568 18.5691C81.8095 18.6709 82.4001 18.786 82.9927 18.8027C83.0313 18.8022 83.0686 18.817 83.0962 18.8437C83.1239 18.8705 83.1397 18.907 83.1401 18.9453C83.1406 18.9836 83.1257 19.0204 83.0987 19.0478C83.0717 19.0752 83.0348 19.0908 82.9961 19.0913Z" fill="#568564"/>
<path d="M81.2522 11.4877C80.6606 11.3136 80.0324 11.3007 79.434 11.4504C79.1397 11.5222 78.858 11.6372 78.5981 11.7917C78.3409 11.9434 78.104 12.1265 77.893 12.3368C77.8749 12.3529 77.8601 12.3724 77.8496 12.3941C77.8391 12.4158 77.833 12.4393 77.8316 12.4634C77.8303 12.4874 77.8338 12.5115 77.8418 12.5342C77.8499 12.557 77.8624 12.5779 77.8786 12.5958C77.8949 12.6138 77.9145 12.6284 77.9364 12.6388C77.9583 12.6492 77.9821 12.6553 78.0064 12.6566C78.0307 12.6579 78.055 12.6545 78.078 12.6465C78.1009 12.6385 78.122 12.6261 78.1402 12.6101L78.1515 12.6007C78.348 12.4252 78.5661 12.2748 78.8005 12.1531C79.0314 12.032 79.2794 11.9461 79.5362 11.8985C80.0431 11.8002 80.5671 11.8362 81.0554 12.0028L81.0741 12.0096C81.1434 12.0348 81.2199 12.0317 81.2869 12.001C81.3539 11.9703 81.4058 11.9145 81.4313 11.8459C81.4567 11.7773 81.4536 11.7014 81.4226 11.6351C81.3916 11.5688 81.3352 11.5174 81.2659 11.4922L81.2522 11.4877Z" fill="#568564"/>
<path d="M85.4974 12.0051C85.9669 11.7918 86.4851 11.7053 86.9994 11.7543C87.2597 11.7771 87.515 11.8387 87.7567 11.937C88.0019 12.0356 88.2337 12.1643 88.4466 12.32L88.4584 12.3278C88.478 12.3421 88.5002 12.3524 88.5238 12.3582C88.5474 12.364 88.5719 12.3651 88.5959 12.3615C88.62 12.3579 88.643 12.3496 88.6638 12.3372C88.6847 12.3247 88.7028 12.3083 88.7172 12.289C88.7316 12.2696 88.742 12.2476 88.7479 12.2242C88.7537 12.2009 88.7548 12.1766 88.7512 12.1528C88.7475 12.129 88.7392 12.1061 88.7266 12.0855C88.714 12.0649 88.6975 12.047 88.6779 12.0327C88.4474 11.8436 88.1936 11.684 87.9227 11.5578C87.649 11.429 87.3573 11.3415 87.0573 11.2984C86.4474 11.2071 85.8238 11.2803 85.2523 11.5103C85.2185 11.5242 85.1879 11.5445 85.162 11.5701C85.1362 11.5957 85.1157 11.6261 85.1018 11.6596C85.0878 11.693 85.0807 11.7289 85.0807 11.7651C85.0807 11.8013 85.0879 11.8371 85.102 11.8705C85.116 11.904 85.1365 11.9343 85.1624 11.9599C85.1882 11.9855 85.2189 12.0058 85.2527 12.0196C85.2865 12.0334 85.3227 12.0405 85.3592 12.0405C85.3958 12.0404 85.432 12.0333 85.4657 12.0194L85.4792 12.0137L85.4974 12.0051Z" fill="#568564"/>
<path d="M53.9061 31.5941L54.2186 23.9317C54.2255 23.7633 54.1968 23.5954 54.1345 23.4386C54.0722 23.2819 53.9777 23.1396 53.8568 23.021C53.736 22.9024 53.5915 22.81 53.4326 22.7497C53.2738 22.6894 53.104 22.6625 52.934 22.6708C52.6206 22.6956 52.3278 22.8349 52.1122 23.0615C51.8966 23.2881 51.7738 23.586 51.7675 23.8972L51.7005 25.5412L49.5163 20.2772C49.2839 19.6879 48.6177 19.112 47.9674 19.414C47.7097 19.5142 47.4939 19.6978 47.3551 19.935C47.2163 20.1723 47.1628 20.449 47.2032 20.7202C47.197 20.721 47.1909 20.7223 47.185 20.7242C47.1805 20.7262 47.1774 20.7296 47.1732 20.732L46.8148 19.8234C46.7483 19.655 46.6448 19.5035 46.5117 19.3798C46.3786 19.2561 46.2193 19.1634 46.0454 19.1084C45.8716 19.0534 45.6875 19.0375 45.5066 19.0619C45.3258 19.0863 45.1527 19.1503 45 19.2493C44.7628 19.4101 44.5886 19.6466 44.5065 19.9194C44.4244 20.1921 44.4393 20.4845 44.5489 20.7476L44.7004 21.1364C44.6911 21.1459 44.6836 21.157 44.6782 21.1691C44.514 20.9315 44.2697 20.7596 43.9892 20.684C43.7087 20.6084 43.4101 20.6341 43.147 20.7565C42.863 20.8988 42.6436 21.142 42.5326 21.4374C42.4217 21.7328 42.4272 22.0588 42.5483 22.3504L42.9275 23.3106C42.9124 23.3008 42.8952 23.2947 42.8773 23.2928C42.8594 23.2908 42.8413 23.2931 42.8244 23.2994C42.8049 23.3081 42.7882 23.3221 42.7765 23.3399C42.5708 23.1686 42.314 23.0689 42.0456 23.0562C41.7772 23.0435 41.512 23.1185 41.2908 23.2697C41.0616 23.433 40.8949 23.6682 40.8176 23.9371C40.7403 24.2061 40.757 24.493 40.865 24.7513L44.0629 32.8552C44.5104 33.9888 45.2895 34.9643 46.3005 35.6566C47.3114 36.3489 48.5081 36.7265 49.7371 36.7409C50.7969 36.7533 51.8198 36.3561 52.5886 35.6336C53.3573 34.9111 53.8113 33.9203 53.8542 32.8716L53.9061 31.5941Z" fill="#E98862"/>
<g opacity="0.2">
<path d="M49.3379 25.9395C49.3103 25.95 49.2797 25.9493 49.2526 25.9377C49.2256 25.9261 49.2041 25.9045 49.1929 25.8774L47.1223 20.8702C47.1165 20.8565 47.1134 20.8419 47.1133 20.8271C47.1133 20.8123 47.1162 20.7976 47.1219 20.7839C47.1276 20.7702 47.136 20.7578 47.1466 20.7473C47.1571 20.7368 47.1697 20.7286 47.1836 20.7229C47.1974 20.7173 47.2122 20.7145 47.2272 20.7146C47.2422 20.7147 47.2569 20.7178 47.2707 20.7236C47.2845 20.7294 47.2969 20.7378 47.3074 20.7484C47.3178 20.759 47.326 20.7716 47.3315 20.7854L49.4022 25.7926C49.4078 25.8062 49.4107 25.8208 49.4106 25.8356C49.4106 25.8503 49.4076 25.8648 49.4018 25.8784C49.3961 25.892 49.3877 25.9043 49.3771 25.9147C49.3665 25.925 49.354 25.9332 49.3403 25.9388L49.3379 25.9395Z" fill="#568564"/>
</g>
<g opacity="0.2">
<path d="M47.1331 26.905C47.1055 26.9154 47.0749 26.9147 47.0479 26.9031C47.0208 26.8915 46.9994 26.8699 46.9882 26.8428L44.6772 21.2547C44.6715 21.2411 44.6687 21.2266 44.6687 21.2119C44.6687 21.1972 44.6717 21.1827 44.6774 21.1691C44.6832 21.1556 44.6915 21.1433 44.7021 21.1329C44.7126 21.1226 44.7251 21.1144 44.7388 21.1089C44.7667 21.0986 44.7974 21.0992 44.8248 21.1105C44.8522 21.1219 44.8742 21.1431 44.8864 21.1699L47.1974 26.758C47.2087 26.7856 47.2085 26.8164 47.1969 26.8438C47.1853 26.8712 47.1632 26.8929 47.1355 26.9042L47.1331 26.905Z" fill="#568564"/>
</g>
<g opacity="0.2">
<path d="M44.751 27.9641C44.7234 27.9745 44.6928 27.9738 44.6657 27.9622C44.6387 27.9506 44.6172 27.929 44.606 27.902L42.7615 23.4445C42.7558 23.4309 42.753 23.4163 42.7531 23.4016C42.7531 23.3869 42.7561 23.3723 42.7619 23.3587C42.7676 23.3452 42.776 23.3329 42.7866 23.3225C42.7971 23.3121 42.8096 23.3039 42.8234 23.2984C42.8371 23.2928 42.8519 23.29 42.8667 23.29C42.8816 23.2901 42.8963 23.2931 42.91 23.2988C42.9237 23.3045 42.9361 23.3128 42.9466 23.3232C42.9571 23.3337 42.9653 23.3461 42.971 23.3597L44.8155 27.8171C44.8269 27.8446 44.8267 27.8754 44.8152 27.9028C44.8036 27.9302 44.7816 27.9519 44.7539 27.9633L44.751 27.9641Z" fill="#568564"/>
</g>
<path d="M81.7273 20.6552C83.4547 20.7688 85.1709 20.3091 86.6049 19.3487C86.6547 19.316 86.7129 19.298 86.7726 19.2967C86.8323 19.2954 86.8912 19.3109 86.9424 19.3414C86.9936 19.3718 87.035 19.4161 87.0619 19.4689C87.0888 19.5217 87.1 19.581 87.0943 19.6399C86.9791 20.6505 86.4747 22.5085 84.3342 22.7451C82.9521 22.8978 81.9505 21.8467 81.4459 21.1479C81.4114 21.0994 81.3915 21.0423 81.3886 20.983C81.3856 20.9238 81.3997 20.865 81.4292 20.8134C81.4587 20.7618 81.5023 20.7195 81.5551 20.6915C81.6079 20.6635 81.6676 20.6509 81.7273 20.6552Z" fill="white"/>
<path d="M115.339 41.7357C114.301 38.8157 113.464 37.3597 112.398 36.2081C110.94 34.632 108.747 33.0802 104.68 32.3759C102.195 31.948 98.4502 31.5628 98.4502 31.5628C98.45 31.5694 98.4494 31.5759 98.4484 31.5824C98.4052 31.9693 97.6315 37.9233 90.2817 37.9831C80.1542 38.0668 80.8814 31.1776 80.8598 30.8961C80.8617 30.8906 80.8617 30.887 80.8598 30.887C77.718 30.7659 69.8843 30.6962 66.7299 33.7521C66.3992 34.07 66.0946 34.4135 65.8189 34.7792L65.7757 34.7531L58.5447 45.7618L56.7386 31.1437L53.9066 31.5931L44.7154 33.0515L44.1842 33.1352L40.9092 33.6571L42.0508 42.4186L44.6666 62.5048C47.2193 68.4327 51.2693 73.6105 56.4271 77.5401C58.5616 74.5573 62.0926 69.4117 65.7591 64.0185C65.8165 63.9329 65.8742 63.8474 65.9335 63.7618V63.7636C65.9335 63.8223 65.9354 63.8828 65.9372 63.9436C65.9462 64.3288 65.957 64.7656 65.966 65.2468C66.0524 69.6667 66.1407 77.7682 66.2126 82.9333C72.739 85.3539 79.8144 85.9389 86.6558 84.6235C93.4971 83.3082 99.8375 80.1439 104.975 75.4808C105.011 75.4505 105.045 75.4184 105.08 75.3845C105.149 75.3239 105.217 75.2616 105.284 75.1992C108.799 71.9525 111.662 68.0773 113.724 63.7777C116.002 59.0245 117.233 53.8458 117.334 48.5855V48.5837L115.339 41.7357Z" fill="#568564"/>
<path d="M105.282 75.1979C105.216 75.2603 105.147 75.3227 105.079 75.3832C105.045 75.4171 105.011 75.4492 104.973 75.4795L103.02 65.6362L103.018 65.6255L100.225 51.5564L100.578 51.4656L105.282 75.1979Z" fill="#568564"/>
<path d="M65.983 65.2472C65.9375 65.2454 65.8943 65.2267 65.862 65.1948C65.8297 65.1629 65.8106 65.1201 65.8086 65.075L65.4473 57.2091C65.4462 57.1854 65.4499 57.1618 65.458 57.1395C65.4661 57.1172 65.4786 57.0968 65.4948 57.0793C65.5109 57.0618 65.5303 57.0476 65.552 57.0376C65.5736 57.0275 65.5971 57.0218 65.621 57.0207C65.6449 57.0196 65.6688 57.0232 65.6913 57.0313C65.7137 57.0393 65.7344 57.0517 65.7521 57.0677C65.7697 57.0836 65.7841 57.1029 65.7942 57.1243C65.8044 57.1458 65.8102 57.169 65.8112 57.1927L66.1725 65.0588C66.1736 65.0825 66.17 65.1061 66.1619 65.1284C66.1537 65.1506 66.1412 65.1711 66.1251 65.1886C66.109 65.206 66.0895 65.2202 66.0678 65.2302C66.0462 65.2402 66.0227 65.2459 65.9989 65.247C65.9923 65.2472 65.9873 65.2475 65.983 65.2472Z" fill="#568564"/>
</g>
<defs>
<clipPath id="clip0_4_56">
<rect width="159" height="208" fill="white"/>
</clipPath>
</defs>
</svg>
