<svg width="36" height="35" viewBox="0 0 36 35" fill="none" xmlns="http://www.w3.org/2000/svg">
<g clip-path="url(#clip0_21_579)">
<path d="M23.25 20.4167H22.065L21.645 20.0229C23.115 18.3604 24 16.2021 24 13.8542C24 8.61875 19.635 4.375 14.25 4.375C8.865 4.375 4.5 8.61875 4.5 13.8542C4.5 19.0896 8.865 23.3333 14.25 23.3333C16.665 23.3333 18.885 22.4729 20.595 21.0438L21 21.4521V22.6042L28.5 29.8813L30.735 27.7083L23.25 20.4167ZM14.25 20.4167C10.515 20.4167 7.5 17.4854 7.5 13.8542C7.5 10.2229 10.515 7.29167 14.25 7.29167C17.985 7.29167 21 10.2229 21 13.8542C21 17.4854 17.985 20.4167 14.25 20.4167Z" fill="white"/>
</g>
<defs>
<clipPath id="clip0_21_579">
<rect width="36" height="35" fill="white"/>
</clipPath>
</defs>
</svg>
